<svg width="1440" height="1024" viewBox="0 0 1440 1024" fill="none" xmlns="http://www.w3.org/2000/svg">
<path d="M-745 -657H2028V1538H-745V-657Z" fill="#050E5C" fill-opacity="0.39"/>
<path d="M182.5 865.462C82.6035 816.165 -118.123 787.896 -615 809.156V1069.89L1679 1093L1650.77 829.183C1514.44 887.338 1209.34 978.076 1079.62 875.784C949.9 773.492 386.395 804.611 182.5 865.462Z" fill="#050E5C" fill-opacity="0.39"/>
<path d="M237.647 787.67C146.982 726.764 44.9577 722.05 -406 748.315V1070.45L1676 1099L1650.38 773.058C1526.64 844.908 1249.75 957.013 1132.01 830.633C1014.28 704.254 422.699 712.489 237.647 787.67Z" fill="#050E5C" fill-opacity="0.39"/>
<path d="M-745 -657H2028V1538H-745V-657Z" stroke="#ED0B34"/>
<path d="M182.5 865.462C82.6035 816.165 -118.123 787.896 -615 809.156V1069.89L1679 1093L1650.77 829.183C1514.44 887.338 1209.34 978.076 1079.62 875.784C949.9 773.492 386.395 804.611 182.5 865.462Z" stroke="#ED0B34"/>
<path d="M237.647 787.67C146.982 726.764 44.9577 722.05 -406 748.315V1070.45L1676 1099L1650.38 773.058C1526.64 844.908 1249.75 957.013 1132.01 830.633C1014.28 704.254 422.699 712.489 237.647 787.67Z" stroke="#ED0B34"/>
</svg>
